<?xml version="1.0" encoding="UTF-8"?>
<!DOCTYPE svg PUBLIC "-//W3C//DTD SVG 1.1//EN" "http://www.w3.org/Graphics/SVG/1.1/DTD/svg11.dtd">
<svg xmlns="http://www.w3.org/2000/svg" version="1.1" width="137px" height="130px" style="shape-rendering:geometricPrecision; text-rendering:geometricPrecision; image-rendering:optimizeQuality; fill-rule:evenodd; clip-rule:evenodd" xmlns:xlink="http://www.w3.org/1999/xlink">
<g><path style="opacity:1" fill="#08b19d" d="M -0.5,-0.5 C 45.1667,-0.5 90.8333,-0.5 136.5,-0.5C 136.5,42.8333 136.5,86.1667 136.5,129.5C 90.8333,129.5 45.1667,129.5 -0.5,129.5C -0.5,86.1667 -0.5,42.8333 -0.5,-0.5 Z"/></g>
<g><path style="opacity:1" fill="#dbf9f8" d="M 37.5,59.5 C 39.4646,59.9483 39.7979,60.9483 38.5,62.5C 37.6143,61.675 37.281,60.675 37.5,59.5 Z"/></g>
<g><path style="opacity:1" fill="#d2faf8" d="M 70.5,59.5 C 72.4646,59.9483 72.7979,60.9483 71.5,62.5C 70.6143,61.675 70.281,60.675 70.5,59.5 Z"/></g>
<g><path style="opacity:1" fill="#d7f7f4" d="M 60.5,53.5 C 61.5,53.5 62.5,53.5 63.5,53.5C 63.0775,57.5506 63.7441,61.3839 65.5,65C 62.6003,69.2734 62.9337,73.1068 66.5,76.5C 64.3886,77.8485 62.5553,77.5152 61,75.5C 60.7181,71.9605 60.2181,68.4605 59.5,65C 60.3942,61.2238 60.7275,57.3905 60.5,53.5 Z"/></g>
<g><path style="opacity:1" fill="#eafcfb" d="M 21.5,57.5 C 24.9297,57.1065 28.0964,57.7732 31,59.5C 31.1869,63.7098 32.0203,67.7098 33.5,71.5C 33.5938,73.9116 32.5938,75.745 30.5,77C 27.5184,77.498 24.5184,77.6646 21.5,77.5C 21.5,70.8333 21.5,64.1667 21.5,57.5 Z"/></g>
<g><path style="opacity:1" fill="#2aab98" d="M 27.5,60.5 C 30.1667,61.8333 30.1667,63.1667 27.5,64.5C 26.5,64.5 25.5,64.5 24.5,64.5C 24.5,63.1667 24.5,61.8333 24.5,60.5C 25.5,60.5 26.5,60.5 27.5,60.5 Z"/></g>
<g><path style="opacity:1" fill="#76cfc4" d="M 27.5,60.5 C 26.5,60.5 25.5,60.5 24.5,60.5C 24.5,61.8333 24.5,63.1667 24.5,64.5C 25.5,64.5 26.5,64.5 27.5,64.5C 26.4324,65.4345 25.099,65.7678 23.5,65.5C 23.5,63.5 23.5,61.5 23.5,59.5C 25.099,59.2322 26.4324,59.5655 27.5,60.5 Z"/></g>
<g><path style="opacity:1" fill="#d6f5f2" d="M 47.5,63.5 C 56.5195,63.8765 59.8529,68.5431 57.5,77.5C 56.5,77.5 55.5,77.5 54.5,77.5C 54.6646,74.4816 54.498,71.4816 54,68.5C 51.6667,65.8333 49.3333,65.8333 47,68.5C 46.502,71.4816 46.3354,74.4816 46.5,77.5C 45.5,77.5 44.5,77.5 43.5,77.5C 43.5,73.1667 43.5,68.8333 43.5,64.5C 45.099,64.7678 46.4324,64.4345 47.5,63.5 Z"/></g>
<g><path style="opacity:1" fill="#ddf8f6" d="M 89.5,63.5 C 92.3245,63.0807 94.4912,64.0807 96,66.5C 96.8265,70.5411 96.6599,74.5411 95.5,78.5C 94.6764,75.2152 94.1764,71.8818 94,68.5C 92.6043,66.4732 90.9376,66.1398 89,67.5C 87.458,81.9395 86.1246,81.9395 85,67.5C 83.6124,66.4464 82.1124,66.2797 80.5,67C 79.5442,70.3936 79.2108,73.8936 79.5,77.5C 78.5,77.5 77.5,77.5 76.5,77.5C 76.5,73.1667 76.5,68.8333 76.5,64.5C 80.0592,64.2845 83.5592,64.6178 87,65.5C 88.301,65.3613 89.1344,64.6946 89.5,63.5 Z"/></g>
<g><path style="opacity:1" fill="#effcfc" d="M 113.5,68.5 C 113.5,69.5 113.5,70.5 113.5,71.5C 109.833,71.5 106.167,71.5 102.5,71.5C 102.737,72.791 102.404,73.791 101.5,74.5C 99.3451,66.8153 102.345,63.6486 110.5,65C 112.426,65.4224 113.426,66.5891 113.5,68.5 Z"/></g>
<g><path style="opacity:1" fill="#38b09e" d="M 110.5,68.5 C 108.167,69.8333 105.833,69.8333 103.5,68.5C 104.134,67.0532 105.301,66.3866 107,66.5C 108.699,66.3866 109.866,67.0532 110.5,68.5 Z"/></g>
<g><path style="opacity:1" fill="#ccf8f5" d="M 69.5,64.5 C 70.5,64.5 71.5,64.5 72.5,64.5C 72.5,68.8333 72.5,73.1667 72.5,77.5C 71.5,77.5 70.5,77.5 69.5,77.5C 69.5,73.1667 69.5,68.8333 69.5,64.5 Z"/></g>
<g><path style="opacity:1" fill="#9cdcd5" d="M 103.5,68.5 C 105.833,69.8333 108.167,69.8333 110.5,68.5C 111.043,68.56 111.376,68.8933 111.5,69.5C 108.5,70.8333 105.5,70.8333 102.5,69.5C 102.624,68.8933 102.957,68.56 103.5,68.5 Z"/></g>
<g><path style="opacity:1" fill="#1eaf9d" d="M 28.5,68.5 C 31.8555,70.1853 32.1888,72.1853 29.5,74.5C 27.8333,74.5 26.1667,74.5 24.5,74.5C 24.5,72.5 24.5,70.5 24.5,68.5C 25.8333,68.5 27.1667,68.5 28.5,68.5 Z"/></g>
<g><path style="opacity:1" fill="#76cabe" d="M 28.5,68.5 C 27.1667,68.5 25.8333,68.5 24.5,68.5C 24.5,70.5 24.5,72.5 24.5,74.5C 26.1667,74.5 27.8333,74.5 29.5,74.5C 27.7354,75.4614 25.7354,75.7947 23.5,75.5C 23.5,72.8333 23.5,70.1667 23.5,67.5C 25.4147,67.2155 27.0813,67.5489 28.5,68.5 Z"/></g>
<g><path style="opacity:1" fill="#e8fefd" d="M 37.5,63.5 C 38.8048,65.3972 39.4714,67.7305 39.5,70.5C 39.1667,72.8333 38.8333,75.1667 38.5,77.5C 37.5067,72.8804 37.1734,68.2137 37.5,63.5 Z"/></g>
<g><path style="opacity:1" fill="#d2f4f2" d="M 113.5,68.5 C 114.434,69.5676 114.768,70.901 114.5,72.5C 110.774,72.1774 107.107,72.5108 103.5,73.5C 103.709,74.086 104.043,74.586 104.5,75C 107.277,75.0511 109.943,75.2178 112.5,75.5C 109.646,78.7685 106.313,79.2685 102.5,77C 101.748,76.3292 101.414,75.4959 101.5,74.5C 102.404,73.791 102.737,72.791 102.5,71.5C 106.167,71.5 109.833,71.5 113.5,71.5C 113.5,70.5 113.5,69.5 113.5,68.5 Z"/></g>
</svg>
